{"title":"Goodnight For Justice 2011 DVDRip XviD VoMiT","uid":6372335,"size":747501282,"categoryP":"video","categoryS":"movies","magnet":"?xt=urn:btih:eb4c2bfeccd1ea624a8369511706df460b4f91d3&amp;dn=Goodnight+For+Justice+2011+DVDRip+XviD+VoMiT&amp;tr=udp%3A%2F%2Ftracker.openbittorrent.com%3A80&amp;tr=udp%3A%2F%2Fopen.demonii.com%3A1337&amp;tr=udp%3A%2F%2Ftracker.coppersurfer.tk%3A6969&amp;tr=udp%3A%2F%2Fexodus.desync.com%3A6969","seeders":0,"leechers":2,"uploader":"qwersd","files":-1,"time":1304722370,"description":"Goodnight For Justice 2011 DVDRip XviD-VoMiT\nVideo: XVID | 640 x 352 | 935 kbps | 23.976 fps\nAudio: English | MP3 VBR Stereo | 160 kb/s | Channels 2.0\n\nPlot: When john goodnight was a boy he watched in the weeds as his entire family was \nkilled in a ruthless outlaw attack. Now as a circuit judge of the western territories \ngoodnight travels the west protecting the innocent from injustice.\n &lt;a href=&quot;\nhttp://www.imdb.com/title/tt1716743/&quot; rel=&quot;nofollow&quot; target=&quot;_NEW&quot;&gt;\nhttp://www.imdb.com/title/tt1716743/&lt;/a&gt;\n\nGoodnight For Justice 2011 DVDRip XviD-VoMiT\n\nFormat : AVI\nFormat/Info : Audio Video Interleave\nFile size : 701 MiB\nDuration : 1h 28mn\nOverall bit rate : 1 112 Kbps\nWriting application : VirtualDubMod 1.5.10.2 (build 2540/release)\nWriting library : VirtualDubMod build 2540/release\n\nVideo\nID : 0\nFormat : MPEG-4 Visual\nFormat profile : Advanced Simple@L5\nFormat settings, BVOP : Yes\nFormat settings, QPel : No\nFormat settings, GMC : No warppoints\nFormat settings, Matrix : Default (H.263)\nCodec ID : XVID\nCodec ID/Hint : XviD\nDuration : 1h 28mn\nBit rate : 936 Kbps\nWidth : 640 pixels\nHeight : 352 pixels\nDisplay aspect ratio : 16:9\nFrame rate : 23.976 fps\nColor space : YUV\nChroma subsampling : 4:2:0\nBit depth : 8 bits\nScan type : Progressive\nBits/(Pixel*Frame) : 0.173\nStream size : 589 MiB (84%)\nWriting library : XviD 63\n\nAudio\nID : 1\nFormat : MPEG Audio\nFormat version : Version 1\nFormat profile : Layer 3\nMode : Joint stereo\nMode extension : MS Stereo\nCodec ID : 55\nCodec ID/Hint : MP3\nDuration : 1h 28mn\nBit rate mode : Variable\nBit rate : 160 Kbps\nChannel(s) : 2 channels\nSampling rate : 48.0 KHz\nStream size : 103 MiB (15%)\nAlignment : Aligned on interleaves\nInterleave, duration : 24 ms (0.58 video frame)\nInterleave, preload duration : 173 ms\nWriting library : LAME3.90.\nEncoding settings : -m j -V 4 -q 2 -lowpass 18 --abr 160","torrent":{"xt":"urn:btih:eb4c2bfeccd1ea624a8369511706df460b4f91d3","amp;dn":"Goodnight+For+Justice+2011+DVDRip+XviD+VoMiT","amp;tr":["udp%3A%2F%2Ftracker.openbittorrent.com%3A80","udp%3A%2F%2Fopen.demonii.com%3A1337","udp%3A%2F%2Ftracker.coppersurfer.tk%3A6969","udp%3A%2F%2Fexodus.desync.com%3A6969"],"infoHash":"eb4c2bfeccd1ea624a8369511706df460b4f91d3","infoHashBuffer":{"type":"Buffer","data":[235,76,43,254,204,209,234,98,74,131,105,81,23,6,223,70,11,79,145,211]},"announce":[],"urlList":[]}}